<svg height="512pt" viewBox="0 -16 512 512" width="512pt" xmlns="http://www.w3.org/2000/svg"><path d="m156 330h326v90h-326zm0 0" fill="#d63d52"/><path d="m30 330h226v90h-226zm0 0" fill="#ff4154"/><path d="m156 180h326v90h-326zm0 0" fill="#ffbe4e"/><path d="m30 180h226v90h-226zm0 0" fill="#ffe26c"/><path d="m452 480c33.085938 0 60-26.914062 60-60v-30h-256l-90 45 90 45zm0 0" fill="#ff6358"/><path d="m0 420c0 33.085938 26.914062 60 60 60h196v-90h-256zm0 0" fill="#ff855c"/><path d="m452 360c33.085938 0 60-26.914062 60-60s-26.914062-60-60-60h-196l-150 60 150 60zm0 0" fill="#5b324c"/><path d="m0 300c0 33.085938 26.914062 60 60 60h196v-120h-196c-33.085938 0-60 26.914062-60 60zm0 0" fill="#84354e"/><path d="m148.597656 190 107.402344 200 200-200zm0 0" fill="#ffbe4e"/><path d="m56 190 200 200v-200zm0 0" fill="#ffe26c"/><path d="m512 165c0-43.90625-17.210938-85.296875-48.457031-116.542969-31.246094-31.25-72.636719-48.457031-116.542969-48.457031h-91l-120 105 120 105h256zm0 0" fill="#ff6358"/><path d="m165 0c-43.90625 0-85.296875 17.207031-116.542969 48.457031-31.246093 31.246094-48.457031 72.636719-48.457031 116.542969v45h256v-210zm0 0" fill="#ff855c"/><path d="m301 60h30v30h-30zm0 0" fill="#ffa356"/><path d="m121 120h30v30h-30zm0 0" fill="#ffbe4e"/><path d="m361 90h30v30h-30zm0 0" fill="#ffa356"/></svg>